HIERARCHY
ROOT mixamorig:Hips
{
	OFFSET 0.000000 104.274902 0.000000
	CHANNELS 6 Xposition Yposition Zposition Xrotation Yrotation Zrotation
	JOINT mixamorig:Spine
	{
		OFFSET 0.000000 10.181549 0.131524
		CHANNELS 6 Xposition Yposition Zposition Xrotation Yrotation Zrotation
		JOINT mixamorig:Spine1
		{
			OFFSET 0.000000 9.893990 -1.470706
			CHANNELS 3 Xrotation Yrotation Zrotation
			JOINT mixamorig:Spine2
			{
				OFFSET 0.000000 9.220787 -1.370637
				CHANNELS 3 Xrotation Yrotation Zrotation
				JOINT mixamorig:Neck
				{
					OFFSET 0.000000 16.740372 -2.049022
					CHANNELS 6 Xposition Yposition Zposition Xrotation Yrotation Zrotation
					JOINT mixamorig:Head
					{
						OFFSET 0.000000 9.617859 1.684976
						CHANNELS 6 Xposition Yposition Zposition Xrotation Yrotation Zrotation
						JOINT mixamorig:HeadTop_End
						{
							OFFSET 0.000000 22.037384 7.501072
							CHANNELS 6 Xposition Yposition Zposition Xrotation Yrotation Zrotation
							End Site
							{
								OFFSET 0.000000 23.106567 -2.828246
							}
						}
					}
				}
				JOINT mixamorig:RightShoulder
				{
					OFFSET -4.570000 11.014877 -2.160840
					CHANNELS 6 Xposition Yposition Zposition Xrotation Yrotation Zrotation
					JOINT mixamorig:RightArm
					{
						OFFSET -10.592867 -0.524796 -2.232105
						CHANNELS 3 Xrotation Yrotation Zrotation
						JOINT mixamorig:RightForeArm
						{
							OFFSET -27.841497 0.000000 -0.000002
							CHANNELS 3 Xrotation Yrotation Zrotation
							JOINT mixamorig:RightHand
							{
								OFFSET -28.328812 0.000000 -0.000001
								CHANNELS 3 Xrotation Yrotation Zrotation
								JOINT mixamorig:RightHandThumb1
								{
									OFFSET -2.464798 -1.573990 2.681911
									CHANNELS 6 Xposition Yposition Zposition Xrotation Yrotation Zrotation
									JOINT mixamorig:RightHandThumb2
									{
										OFFSET -3.244781 -1.873383 1.873376
										CHANNELS 3 Xrotation Yrotation Zrotation
										JOINT mixamorig:RightHandThumb3
										{
											OFFSET -2.646263 -1.527817 1.527818
											CHANNELS 6 Xposition Yposition Zposition Xrotation Yrotation Zrotation
											JOINT mixamorig:RightHandThumb4
											{
												OFFSET -1.994591 -1.151581 1.151575
												CHANNELS 6 Xposition Yposition Zposition Xrotation Yrotation Zrotation
												End Site
												{
													OFFSET -1.860176 -1.142715 1.365483
												}
											}
										}
									}
								}
								JOINT mixamorig:RightHandIndex1
								{
									OFFSET -9.108299 -0.517883 2.259803
									CHANNELS 6 Xposition Yposition Zposition Xrotation Yrotation Zrotation
									JOINT mixamorig:RightHandIndex2
									{
										OFFSET -3.699997 0.000000 0.000000
										CHANNELS 3 Xrotation Yrotation Zrotation
										JOINT mixamorig:RightHandIndex3
										{
											OFFSET -2.850006 0.000000 0.000000
											CHANNELS 3 Xrotation Yrotation Zrotation
											JOINT mixamorig:RightHandIndex4
											{
												OFFSET -2.772194 0.000000 0.000000
												CHANNELS 3 Xrotation Yrotation Zrotation
												End Site
												{
													OFFSET -2.772202 0.000000 -0.000484
												}
											}
										}
									}
								}
								JOINT mixamorig:RightHandMiddle1
								{
									OFFSET -9.532501 0.000000 -0.000000
									CHANNELS 6 Xposition Yposition Zposition Xrotation Yrotation Zrotation
									JOINT mixamorig:RightHandMiddle2
									{
										OFFSET -3.699997 0.000000 0.000000
										CHANNELS 3 Xrotation Yrotation Zrotation
										JOINT mixamorig:RightHandMiddle3
										{
											OFFSET -2.949997 0.000000 0.000000
											CHANNELS 3 Xrotation Yrotation Zrotation
											JOINT mixamorig:RightHandMiddle4
											{
												OFFSET -2.946594 0.000000 0.000000
												CHANNELS 3 Xrotation Yrotation Zrotation
												End Site
												{
													OFFSET -2.946602 0.000000 -0.000982
												}
											}
										}
									}
								}
								JOINT mixamorig:RightHandRing1
								{
									OFFSET -9.103600 -0.043106 -1.865100
									CHANNELS 6 Xposition Yposition Zposition Xrotation Yrotation Zrotation
									JOINT mixamorig:RightHandRing2
									{
										OFFSET -3.379303 0.000000 0.000000
										CHANNELS 3 Xrotation Yrotation Zrotation
										JOINT mixamorig:RightHandRing3
										{
											OFFSET -2.889694 0.000000 0.000000
											CHANNELS 3 Xrotation Yrotation Zrotation
											JOINT mixamorig:RightHandRing4
											{
												OFFSET -2.638802 0.000000 0.000000
												CHANNELS 3 Xrotation Yrotation Zrotation
												End Site
												{
													OFFSET -2.638802 0.000000 0.004218
												}
											}
										}
									}
								}
								JOINT mixamorig:RightHandPinky1
								{
									OFFSET -8.076698 -0.486725 -3.806299
									CHANNELS 6 Xposition Yposition Zposition Xrotation Yrotation Zrotation
									JOINT mixamorig:RightHandPinky2
									{
										OFFSET -3.600006 0.000000 0.000000
										CHANNELS 3 Xrotation Yrotation Zrotation
										JOINT mixamorig:RightHandPinky3
										{
											OFFSET -2.099998 0.000000 0.000000
											CHANNELS 3 Xrotation Yrotation Zrotation
											JOINT mixamorig:RightHandPinky4
											{
												OFFSET -2.115791 0.000000 0.000000
												CHANNELS 3 Xrotation Yrotation Zrotation
												End Site
												{
													OFFSET -2.115799 0.000000 0.000174
												}
											}
										}
									}
								}
							}
						}
					}
				}
				JOINT mixamorig:LeftShoulder
				{
					OFFSET 4.570400 11.014679 -2.160816
					CHANNELS 6 Xposition Yposition Zposition Xrotation Yrotation Zrotation
					JOINT mixamorig:LeftArm
					{
						OFFSET 10.592373 -0.524597 -2.232116
						CHANNELS 3 Xrotation Yrotation Zrotation
						JOINT mixamorig:LeftForeArm
						{
							OFFSET 27.841488 0.000000 0.000001
							CHANNELS 3 Xrotation Yrotation Zrotation
							JOINT mixamorig:LeftHand
							{
								OFFSET 28.328808 0.000000 -0.000000
								CHANNELS 3 Xrotation Yrotation Zrotation
								JOINT mixamorig:LeftHandThumb1
								{
									OFFSET 2.466103 -1.576202 2.681698
									CHANNELS 6 Xposition Yposition Zposition Xrotation Yrotation Zrotation
									JOINT mixamorig:LeftHandThumb2
									{
										OFFSET 3.243317 -1.872528 1.872530
										CHANNELS 3 Xrotation Yrotation Zrotation
										JOINT mixamorig:LeftHandThumb3
										{
											OFFSET 2.647881 -1.528763 1.528754
											CHANNELS 6 Xposition Yposition Zposition Xrotation Yrotation Zrotation
											JOINT mixamorig:LeftHandThumb4
											{
												OFFSET 1.998924 -1.154083 1.154080
												CHANNELS 6 Xposition Yposition Zposition Xrotation Yrotation Zrotation
												End Site
												{
													OFFSET 1.884041 -1.149155 1.337651
												}
											}
										}
									}
								}
								JOINT mixamorig:LeftHandIndex1
								{
									OFFSET 9.109299 -0.518005 2.259900
									CHANNELS 6 Xposition Yposition Zposition Xrotation Yrotation Zrotation
									JOINT mixamorig:LeftHandIndex2
									{
										OFFSET 3.699997 0.000000 0.000000
										CHANNELS 3 Xrotation Yrotation Zrotation
										JOINT mixamorig:LeftHandIndex3
										{
											OFFSET 2.850006 0.000000 0.000000
											CHANNELS 3 Xrotation Yrotation Zrotation
											JOINT mixamorig:LeftHandIndex4
											{
												OFFSET 2.774895 0.000000 0.000000
												CHANNELS 3 Xrotation Yrotation Zrotation
												End Site
												{
													OFFSET 2.774902 0.000000 -0.000072
												}
											}
										}
									}
								}
								JOINT mixamorig:LeftHandMiddle1
								{
									OFFSET 9.533401 0.000000 0.000000
									CHANNELS 6 Xposition Yposition Zposition Xrotation Yrotation Zrotation
									JOINT mixamorig:LeftHandMiddle2
									{
										OFFSET 3.699997 0.000000 0.000000
										CHANNELS 3 Xrotation Yrotation Zrotation
										JOINT mixamorig:LeftHandMiddle3
										{
											OFFSET 2.949997 0.000000 0.000000
											CHANNELS 3 Xrotation Yrotation Zrotation
											JOINT mixamorig:LeftHandMiddle4
											{
												OFFSET 2.952896 0.000000 0.000000
												CHANNELS 3 Xrotation Yrotation Zrotation
												End Site
												{
													OFFSET 2.952904 0.000000 0.000165
												}
											}
										}
									}
								}
								JOINT mixamorig:LeftHandRing1
								{
									OFFSET 9.104500 -0.042999 -1.865101
									CHANNELS 6 Xposition Yposition Zposition Xrotation Yrotation Zrotation
									JOINT mixamorig:LeftHandRing2
									{
										OFFSET 3.149994 0.000000 0.000000
										CHANNELS 3 Xrotation Yrotation Zrotation
										JOINT mixamorig:LeftHandRing3
										{
											OFFSET 2.950005 0.000000 0.000000
											CHANNELS 3 Xrotation Yrotation Zrotation
											JOINT mixamorig:LeftHandRing4
											{
												OFFSET 2.644302 0.000000 0.000000
												CHANNELS 3 Xrotation Yrotation Zrotation
												End Site
												{
													OFFSET 2.644302 0.000000 0.000083
												}
											}
										}
									}
								}
								JOINT mixamorig:LeftHandPinky1
								{
									OFFSET 8.077805 -0.486893 -3.806302
									CHANNELS 6 Xposition Yposition Zposition Xrotation Yrotation Zrotation
									JOINT mixamorig:LeftHandPinky2
									{
										OFFSET 3.600006 0.000000 0.000000
										CHANNELS 3 Xrotation Yrotation Zrotation
										JOINT mixamorig:LeftHandPinky3
										{
											OFFSET 2.099998 0.000000 0.000000
											CHANNELS 3 Xrotation Yrotation Zrotation
											JOINT mixamorig:LeftHandPinky4
											{
												OFFSET 2.125496 0.000000 0.000000
												CHANNELS 3 Xrotation Yrotation Zrotation
												End Site
												{
													OFFSET 2.125504 0.000000 -0.001254
												}
											}
										}
									}
								}
							}
						}
					}
				}
			}
		}
	}
	JOINT mixamorig:RightUpLeg
	{
		OFFSET -8.207800 -6.751701 -1.599544
		CHANNELS 6 Xposition Yposition Zposition Xrotation Yrotation Zrotation
		JOINT mixamorig:RightLeg
		{
			OFFSET 0.000004 -44.370152 0.345934
			CHANNELS 3 Xrotation Yrotation Zrotation
			JOINT mixamorig:RightFoot
			{
				OFFSET 0.000004 -44.423664 -3.043535
				CHANNELS 3 Xrotation Yrotation Zrotation
				JOINT mixamorig:RightToeBase
				{
					OFFSET 0.000001 -8.728691 10.710592
					CHANNELS 3 Xrotation Yrotation Zrotation
					JOINT mixamorig:RightToe_End
					{
						OFFSET 0.000000 -0.000665 9.278101
						CHANNELS 3 Xrotation Yrotation Zrotation
						End Site
						{
							OFFSET 0.000000 -0.000665 9.278103
						}
					}
				}
			}
		}
	}
	JOINT mixamorig:LeftUpLeg
	{
		OFFSET 8.207800 -6.751701 -1.599544
		CHANNELS 6 Xposition Yposition Zposition Xrotation Yrotation Zrotation
		JOINT mixamorig:LeftLeg
		{
			OFFSET 0.000004 -44.370037 0.346940
			CHANNELS 3 Xrotation Yrotation Zrotation
			JOINT mixamorig:LeftFoot
			{
				OFFSET 0.000004 -44.423611 -3.044388
				CHANNELS 3 Xrotation Yrotation Zrotation
				JOINT mixamorig:LeftToeBase
				{
					OFFSET 0.000001 -8.728690 10.710592
					CHANNELS 3 Xrotation Yrotation Zrotation
					JOINT mixamorig:LeftToe_End
					{
						OFFSET 0.000000 -0.000680 9.278101
						CHANNELS 3 Xrotation Yrotation Zrotation
						End Site
						{
							OFFSET 0.000000 -0.000680 9.278101
						}
					}
				}
			}
		}
	}
}
MOTION
Frames: 4
Frame Time: 0.033333
0.478561 101.630867 1.555263 -0.893322 1.577733 -5.359089 0.000001 10.181539 0.131524 1.298038 -1.197539 3.016777 0.728743 0.263524 5.944686 0.710787 0.781492 5.851999 0.000001 16.740379 -2.049023 1.045308 -0.304693 -2.163994 0.000002 9.617867 1.684974 1.584930 0.544178 -8.140493 0.000000 22.037369 7.501074 0.000000 0.000000 0.000000 -4.569999 11.014874 -2.160842 4.508125 3.324376 5.471609 -1.219692 0.655835 67.345467 -0.000009 17.736791 -0.000005 -11.193103 -9.123287 10.139303 -2.464807 -1.573995 2.681915 18.491298 0.461448 -10.916097 1.284022 -32.757632 3.089008 -2.646268 -1.527816 1.527815 2.008727 -8.430471 1.114702 -1.994587 -1.151584 1.151572 0.000001 -0.000003 0.000001 -9.108308 -0.517883 2.259804 0.339574 -4.671356 7.844273 0.387029 -2.823572 20.566243 -0.193128 -0.216348 13.843941 0.000000 -0.000000 0.000001 -9.532507 -0.000006 0.000002 0.912580 -8.769265 15.831742 0.919067 -3.991128 33.400397 0.216478 -1.688838 15.898064 0.000001 -0.000000 0.000002 -9.103599 -0.043104 -1.865098 2.555815 -11.673025 26.909175 1.710660 -3.886781 40.215471 -0.157966 0.035291 17.815331 -0.000000 -0.000000 0.000000 -8.076704 -0.486715 -3.806299 5.576077 -16.029173 36.940634 1.378677 -4.077633 45.645615 -0.727749 -0.247563 22.122735 0.000001 -0.000001 0.000001 4.570404 11.014693 -2.160818 3.582357 -13.764045 -5.044465 4.032793 3.514271 -83.678369 0.000008 -14.506746 0.000028 -27.592629 3.698773 -9.416244 2.466098 -1.576213 2.681700 18.491380 -0.461325 10.916087 1.284018 32.757618 -3.089002 2.647868 -1.528763 1.528756 2.117156 9.311160 -0.358637 1.998921 -1.154084 1.154081 0.000002 0.000002 0.000001 9.109303 -0.518017 2.259900 0.339538 4.671342 -7.844267 0.387014 2.823615 -20.566210 0.034610 0.816852 -10.169822 -0.000002 0.000000 -0.000004 9.533391 0.000006 0.000001 0.912589 8.769327 -15.831721 0.919035 3.991201 -33.400424 0.170558 1.488897 -12.264408 -0.000001 -0.000003 0.000000 9.104489 -0.043005 -1.865105 2.555799 11.673080 -26.909156 1.710627 3.886861 -40.215474 0.544824 1.835094 -19.344131 0.000000 -0.000001 -0.000000 8.077795 -0.486897 -3.806303 5.576049 16.029237 -36.940593 1.378653 4.077725 -45.645611 0.486562 2.853417 -20.524718 -0.000000 -0.000000 -0.000002 -8.207797 -6.751714 -1.599544 -1.603157 -4.966679 10.554079 12.444571 -5.083624 3.268289 -9.844745 1.009941 -7.756614 -0.548653 0.000001 -0.000002 0.000000 0.000001 0.000000 8.207799 -6.751706 -1.599546 -19.556030 10.813043 15.936433 22.044617 9.498164 2.339164 -1.490569 3.351051 -8.781882 -0.441961 -0.000009 -0.000002 -0.000000 0.000002 0.000000 
0.474915 101.613754 1.566807 -0.615945 2.114183 -5.124104 -0.000002 10.181558 0.131523 0.953627 -1.203287 3.020372 0.647081 0.258143 5.880853 0.628960 0.765306 5.789002 -0.000003 16.740360 -2.049021 1.063634 -0.247435 -2.163994 0.000001 9.617870 1.684974 1.979993 1.166390 -8.230667 0.000000 22.037369 7.501074 -0.000000 -0.000000 0.000000 -4.570004 11.014846 -2.160839 4.670644 2.992580 5.292068 -0.750240 0.975458 67.387145 -0.000003 18.087330 0.000010 -11.669295 -9.468194 9.820877 -2.464782 -1.573977 2.681908 18.731529 0.571622 -11.099068 1.284020 -32.757628 3.089006 -2.646282 -1.527825 1.527821 2.008725 -8.430474 1.114708 -1.994580 -1.151584 1.151566 0.000002 -0.000000 0.000002 -9.108292 -0.517878 2.259804 0.352873 -4.808813 9.123885 0.433864 -2.944113 21.848086 -0.186808 -0.349879 15.123016 -0.000000 -0.000000 0.000002 -9.532475 -0.000001 -0.000001 0.974222 -8.852316 16.974816 0.980782 -4.086402 34.538795 0.248779 -1.797524 17.031930 0.000000 -0.000000 -0.000002 -9.103596 -0.043101 -1.865103 2.665770 -11.718764 27.993966 1.788217 -3.960549 41.289259 -0.147181 -0.073558 18.879620 -0.000001 -0.000000 0.000000 -8.076693 -0.486717 -3.806298 5.628897 -16.036760 38.020207 1.449726 -4.158275 46.715823 -0.731154 -0.368076 23.186390 0.000000 0.000001 0.000000 4.570399 11.014668 -2.160815 3.789370 -13.434314 -4.611310 4.131162 2.956005 -83.808996 -0.000008 -14.926803 -0.000005 -27.447721 4.679608 -9.212435 2.466107 -1.576208 2.681699 18.491347 -0.461320 10.916076 1.284017 32.757615 -3.089008 2.647873 -1.528758 1.528751 2.117155 9.311162 -0.358639 1.998917 -1.154085 1.154085 0.000000 -0.000001 -0.000000 9.109299 -0.518007 2.259899 0.339530 4.671342 -7.844261 0.386990 2.823617 -20.566236 0.034622 0.816858 -10.169817 0.000001 0.000001 -0.000001 9.533399 -0.000001 0.000000 0.912566 8.769326 -15.831716 0.919046 3.991198 -33.400428 0.170556 1.488893 -12.264395 -0.000001 -0.000001 0.000000 9.104493 -0.043007 -1.865105 2.555783 11.673085 -26.909168 1.710614 3.886860 -40.215474 0.544834 1.835092 -19.344139 -0.000001 -0.000002 -0.000000 8.077801 -0.486894 -3.806303 5.576027 16.029247 -36.940607 1.378656 4.077726 -45.645639 0.486564 2.853424 -20.524712 -0.000001 -0.000001 0.000001 -8.207798 -6.751703 -1.599544 -2.103665 -4.994128 10.284392 12.809598 -5.087296 3.372821 -10.074663 0.511626 -7.827361 -0.574333 -0.000003 -0.000003 0.000000 -0.000001 -0.000000 8.207800 -6.751694 -1.599542 -19.814343 10.808379 15.591039 21.913767 9.018712 2.339139 -1.410464 3.340075 -8.648609 -0.331356 0.000005 -0.000002 0.000000 0.000002 0.000000 
0.525820 101.581146 1.521914 -0.285515 2.893134 -4.828081 0.000000 10.181558 0.131523 0.787286 -1.146748 2.923165 0.511036 0.240590 5.627148 0.493187 0.724459 5.539378 -0.000000 16.740374 -2.049016 1.061413 -0.167166 -2.163995 -0.000001 9.617828 1.684974 2.245738 2.014302 -8.148790 0.000000 22.037354 7.501077 -0.000000 -0.000000 0.000000 -4.570005 11.014853 -2.160838 4.846822 2.627206 5.060964 -0.244269 1.236488 67.408558 -0.000008 18.698951 0.000030 -12.108770 -10.570688 9.512803 -2.464787 -1.573985 2.681903 19.399581 0.871712 -11.609439 1.284022 -32.757628 3.089007 -2.646266 -1.527818 1.527818 2.008726 -8.430473 1.114704 -1.994597 -1.151587 1.151570 -0.000002 0.000000 -0.000004 -9.108297 -0.517878 2.259803 0.407304 -5.186501 12.673880 0.577707 -3.272504 25.403646 -0.153702 -0.719035 18.669858 -0.000001 -0.000000 -0.000001 -9.532490 0.000003 0.000000 1.152747 -9.078403 20.145894 1.161712 -4.343961 37.696545 0.349558 -2.095329 20.176575 -0.000001 -0.000000 0.000001 -9.103588 -0.043118 -1.865103 2.973225 -11.835078 31.003523 2.010339 -4.157326 44.267177 -0.106734 -0.374099 21.830820 -0.000001 -0.000000 0.000000 -8.076686 -0.486712 -3.806299 5.776832 -16.067696 41.014856 1.654511 -4.374775 49.684329 -0.728896 -0.702313 26.135760 -0.000000 -0.000000 -0.000002 4.570397 11.014683 -2.160812 3.993219 -13.114679 -4.219273 3.978013 1.751907 -83.414826 -0.000003 -15.744593 -0.000017 -26.805154 6.898320 -8.326039 2.466098 -1.576209 2.681696 18.491371 -0.461325 10.916054 1.284017 32.757615 -3.089007 2.647877 -1.528776 1.528745 2.117154 9.311160 -0.358641 1.998910 -1.154068 1.154089 -0.000001 -0.000000 -0.000004 9.109278 -0.518013 2.259898 0.339525 4.671336 -7.844265 0.386999 2.823619 -20.566226 0.034614 0.816845 -10.169806 0.000001 0.000002 -0.000006 9.533387 -0.000002 -0.000001 0.912570 8.769323 -15.831721 0.919042 3.991202 -33.400438 0.170561 1.488907 -12.264407 -0.000001 -0.000001 0.000001 9.104498 -0.043006 -1.865103 2.555790 11.673077 -26.909161 1.710605 3.886848 -40.215464 0.544836 1.835115 -19.344148 0.000001 -0.000001 -0.000000 8.077791 -0.486894 -3.806303 5.576024 16.029233 -36.940603 1.378654 4.077732 -45.645635 0.486566 2.853426 -20.524730 -0.000003 -0.000001 -0.000001 -8.207799 -6.751714 -1.599544 -2.852225 -5.045940 9.906820 13.457036 -5.112299 3.490034 -10.422663 -0.170208 -7.874709 -0.637220 0.000004 -0.000003 0.000000 0.000001 -0.000000 8.207799 -6.751700 -1.599541 -20.187292 10.729894 15.055467 21.811302 8.477517 2.387506 -1.296533 3.326980 -8.450002 -0.328409 -0.000007 0.000002 -0.000000 -0.000000 0.000000 
0.615475 101.515381 1.402192 -0.063631 3.882280 -4.496223 0.000001 10.181543 0.131522 0.999627 -1.015562 2.723181 0.367255 0.233193 5.226622 0.350341 0.679277 5.144607 -0.000000 16.740406 -2.049021 1.021734 -0.039702 -2.147091 0.000002 9.617864 1.684974 2.137726 3.380679 -7.851255 0.000000 22.037369 7.501072 0.000000 0.000000 0.000000 -4.570004 11.014890 -2.160839 4.918960 2.464723 4.805933 0.132741 1.146058 67.322647 0.000003 19.721673 0.000048 -12.317083 -12.281798 9.207886 -2.464775 -1.573983 2.681907 20.418758 1.311993 -12.392460 1.284021 -32.757628 3.089010 -2.646273 -1.527799 1.527818 2.008726 -8.430476 1.114701 -1.994578 -1.151585 1.151566 0.000003 -0.000000 -0.000002 -9.108286 -0.517877 2.259803 0.538106 -5.746931 18.068104 0.834445 -3.752320 30.804573 -0.060011 -1.273652 24.054804 -0.000000 0.000000 -0.000001 -9.532499 0.000004 0.000000 1.444916 -9.408643 24.963792 1.462954 -4.714923 42.493417 0.533413 -2.535659 24.952112 0.000001 -0.000001 0.000000 -9.103589 -0.043107 -1.865099 3.445728 -11.982880 35.574453 2.366452 -4.433334 48.790159 -0.015925 -0.825283 26.311133 0.000000 0.000001 0.000001 -8.076685 -0.486717 -3.806301 6.009101 -16.141959 45.564943 1.986230 -4.682445 54.193303 -0.692607 -1.208327 30.613225 0.000000 0.000000 0.000002 4.570399 11.014682 -2.160814 4.118572 -12.956041 -3.956360 3.422524 0.442230 -82.545145 0.000010 -17.029699 0.000015 -26.472712 9.691494 -6.069094 2.466106 -1.576197 2.681698 18.491376 -0.461326 10.916081 1.284018 32.757615 -3.088997 2.647889 -1.528759 1.528755 2.117156 9.311159 -0.358639 1.998924 -1.154082 1.154079 0.000000 -0.000003 -0.000000 9.109287 -0.518015 2.259899 0.339530 4.671337 -7.844278 0.387008 2.823614 -20.566205 0.034618 0.816850 -10.169818 0.000001 0.000002 -0.000000 9.533395 0.000000 0.000002 0.912574 8.769324 -15.831723 0.919043 3.991196 -33.400428 0.170567 1.488911 -12.264414 0.000001 -0.000001 -0.000000 9.104490 -0.043000 -1.865102 2.555783 11.673080 -26.909166 1.710634 3.886855 -40.215457 0.544839 1.835105 -19.344148 -0.000001 0.000000 0.000000 8.077810 -0.486894 -3.806303 5.576045 16.029240 -36.940627 1.378648 4.077718 -45.645615 0.486562 2.853420 -20.524717 -0.000002 0.000000 0.000001 -8.207800 -6.751699 -1.599543 -3.743576 -5.053967 9.508601 14.483592 -5.123071 3.534789 -10.944082 -1.129284 -7.875240 -0.705800 0.000003 0.000001 0.000000 -0.000000 -0.000000 8.207800 -6.751698 -1.599547 -20.570078 10.573292 14.358873 21.845267 7.861198 2.558036 -1.206064 3.308715 -8.256507 -0.326005 0.000012 -0.000001 0.000000 -0.000002 0.000000 
